<?xml version="1.0" encoding="UTF-8"?>
<!DOCTYPE svg PUBLIC "-//W3C//DTD SVG 1.1//EN" "http://www.w3.org/Graphics/SVG/1.1/DTD/svg11.dtd">
<!-- Creator: CorelDRAW X7 -->
<svg xmlns="http://www.w3.org/2000/svg" xml:space="preserve" width="100%" height="100%" version="1.1" style="shape-rendering:geometricPrecision; text-rendering:geometricPrecision; image-rendering:optimizeQuality; fill-rule:evenodd; clip-rule:evenodd"
viewBox="0 0 6607 2474"
 xmlns:xlink="http://www.w3.org/1999/xlink">
 <defs>
  <style type="text/css">
   <![CDATA[
    .fil3 {fill:#333333}
    .fil4 {fill:#828282}
    .fil0 {fill:#CCCCCC}
    .fil2 {fill:#F22539}
    .fil1 {fill:#F7F7F7}
   ]]>
  </style>
 </defs>
 <g id="Layer_x0020_1">
  <metadata id="CorelCorpID_0Corel-Layer"/>
  <g id="_2373827358368">
   <path class="fil0" d="M5532 1154c41,-48 218,-273 248,-290l0 588 -490 1 242 -299zm-748 730l993 0 4 406 560 1 2 -406 264 -2 0 -429 -262 -4 -3 -1263c-115,-14 -303,-3 -426,-3 -195,0 -131,-29 -288,153l-895 1064c-45,54 -67,51 -45,139 15,61 26,117 41,177 7,29 13,55 19,85 23,103 13,69 36,82z"/>
   <path class="fil0" d="M613 1450c33,-48 81,-102 120,-149 45,-54 79,-92 121,-145 42,-53 79,-95 126,-150 40,-47 77,-104 123,-142l0 589 -490 -3zm-523 434l1010 0 4 405 561 2 1 -406 266 -1 0 -433 -264 -1 -2 -1266 -594 2c-28,58 -113,135 -157,193l-490 585c-25,28 -53,63 -78,93l-247 295c-14,18 -25,28 -40,46 -77,95 -69,53 -37,194 22,96 52,200 67,292z"/>
   <path class="fil1" d="M2878 1457c-42,-82 -36,-152 -62,-160l-627 3c31,582 512,1053 1112,1055 602,3 1092,-475 1117,-1058l-623 0c-31,8 -14,13 -35,83 -114,396 -682,473 -882,77z"/>
   <path class="fil2" d="M4137 758c-91,58 -92,-96 -290,-252 -131,-105 -253,-128 -274,-154 -18,-20 -29,-63 13,-90 130,-87 702,402 551,496zm-1948 418l627 1c29,-7 20,-68 64,-154 75,-145 229,-252 411,-257 255,-7 454,184 485,410l642 1c-2,-565 -522,-1059 -1118,-1057 -595,3 -1089,479 -1111,1056z"/>
   <path class="fil3" d="M2189 1300l627 -3c26,8 20,78 62,160 200,396 768,319 882,-77 21,-70 4,-75 35,-83l623 0c-25,583 -515,1061 -1117,1058 -600,-2 -1081,-473 -1112,-1055zm1032 -405c217,-54 397,103 433,271 45,211 -99,385 -263,424 -462,112 -632,-580 -170,-695zm-1032 281c22,-577 516,-1053 1111,-1056 596,-2 1116,492 1118,1057l-642 -1c-31,-226 -230,-417 -485,-410 -182,5 -336,112 -411,257 -44,86 -35,147 -64,154l-627 -1zm965 -1166c-174,22 -331,77 -460,151 -73,41 -121,78 -180,125 -162,130 -309,341 -380,551 -58,169 -81,362 -57,555 78,629 650,1162 1381,1073 624,-77 1163,-652 1074,-1377 -78,-629 -649,-1169 -1378,-1078z"/>
   <path class="fil1" d="M3586 262c-42,27 -31,70 -13,90 21,26 143,49 274,154 198,156 199,310 290,252 151,-94 -421,-583 -551,-496z"/>
   <path class="fil4" d="M3520 1310c-82,279 -522,159 -432,-137 31,-100 146,-184 278,-148 105,28 194,147 154,285zm39 0c91,-326 -416,-475 -509,-138 -46,168 69,298 193,328 160,37 283,-70 316,-190z"/>
  </g>
 </g>
</svg>
