<?xml version="1.0" encoding="UTF-8"?>
<!DOCTYPE svg PUBLIC "-//W3C//DTD SVG 1.1//EN" "http://www.w3.org/Graphics/SVG/1.1/DTD/svg11.dtd">
<!-- Creator: CorelDRAW X7 -->
<svg xmlns="http://www.w3.org/2000/svg" xml:space="preserve" width="100%" height="100%" version="1.1" style="shape-rendering:geometricPrecision; text-rendering:geometricPrecision; image-rendering:optimizeQuality; fill-rule:evenodd; clip-rule:evenodd"
viewBox="0 0 3277 1185"
 xmlns:xlink="http://www.w3.org/1999/xlink">
 <defs>
  <style type="text/css">
   <![CDATA[
    .fil2 {fill:#030066}
    .fil4 {fill:#04019B}
    .fil0 {fill:#322F9A}
    .fil3 {fill:#CE9A65}
    .fil1 {fill:#FECD32}
   ]]>
  </style>
 </defs>
 <g id="Layer_x0020_1">
  <metadata id="CorelCorpID_0Corel-Layer"/>
  <g id="_3099353965056">
   <path class="fil0" d="M2636 739c-35,6 -67,15 -102,25 -36,10 -72,14 -97,36 33,17 46,17 91,25 15,-13 19,-9 46,-13l31 112 -44 6c-131,9 -250,-46 -289,-137 -25,-60 -14,-117 20,-169 32,-50 65,-63 141,-77 63,-4 117,18 157,46 41,29 67,65 81,127l-35 19zm-1612 26c-26,49 -54,79 -117,99 -64,22 -132,3 -167,-29 -89,-80 -31,-245 55,-283l25 -20c80,-48 230,-19 239,120 2,40 -8,87 -35,113zm346 -265l10 50 -8 0c-23,0 -24,-4 -44,-10l42 -40zm544 -195l6 -54c211,8 404,46 412,257l-19 19c-207,177 -45,263 -119,297 -66,47 -200,90 -298,40l53 -390 -48 -23 13 -146zm-1731 53l39 -26c102,-44 240,-73 348,-38 95,30 155,112 135,208 -7,35 -19,63 -42,79 -9,47 -76,112 -123,128 1,42 24,112 35,155 6,26 12,48 20,74 12,43 18,43 -19,56l-85 28 -230 -520 -57 24c-23,-30 -70,-104 -79,-137l58 -31zm2679 158c26,-22 42,-45 67,-68 26,-24 49,-46 78,-65 3,-3 8,-11 16,-18 25,16 98,136 103,160 -6,4 -23,12 -25,13 -55,27 -114,77 -172,106l293 273c-6,17 -11,44 -16,63 -5,26 -7,51 -23,71l-15 -22c-52,-39 -108,-102 -152,-150 -46,-51 -93,-111 -157,-155 -17,31 -38,55 -66,80 -29,27 -42,52 -68,74 -17,-12 -12,-11 -19,-21 -15,-21 -30,-42 -44,-61l74 -25 -18 -111c21,-21 33,-25 55,-46l-166 -222 -33 14c-15,-10 -5,4 -7,-16l-9 -26c25,-27 123,-57 161,-68 22,37 44,76 68,117 15,24 22,36 35,59 29,53 22,38 40,44zm-1091 -101c-15,39 -100,106 -126,153 46,3 60,-8 87,-28l30 -30c16,12 28,23 45,37 41,34 30,24 40,50 -13,10 -11,8 -26,16 -67,71 -241,115 -335,26 -41,-39 -68,-90 -52,-170 13,-62 49,-108 99,-117 10,-13 0,-5 14,-15 9,-7 7,-5 17,-9 11,-4 29,-9 39,-11 79,-16 162,2 200,73l-32 25zm-789 -83l3 -24 168 -49 15 169c17,-24 84,-124 104,-136l11 -31c27,15 110,93 128,114l-27 20c-13,30 -40,53 -63,79 -13,14 -24,28 -37,39 -19,18 -23,15 -39,36 10,14 7,13 42,27 66,25 98,28 132,71 73,89 80,56 177,101l-1 106c-25,-6 -18,1 -33,-19 -66,-8 -288,-150 -377,-181 -28,163 60,234 -107,225 -16,-162 55,-149 19,-274 -35,-122 -42,38 -64,-262l-47 9 -4 -20zm738 -158c-26,12 -45,23 -70,37 -166,88 18,-101 33,-112 6,-11 -4,-7 22,-23l48 78 -33 20zm-237 131c-53,42 -69,-11 -111,-43 -41,-30 -55,-54 -102,-84 -27,7 -28,5 -41,27 -30,-14 -11,-18 -35,-27l-35 16c-14,5 -17,5 -32,10l-196 66 5 145c2,1 5,1 6,1 1,0 4,1 6,1l30 5c1,-2 4,0 7,1l3 58c-20,-4 -44,-11 -58,-17 -45,4 -58,2 -97,13 -39,12 -43,23 -71,31 0,-79 2,-157 -79,-217 -166,-123 -389,-68 -554,25l-87 57c34,40 87,145 122,200l22 31 49 -24 231 511 186 -58c22,-11 11,13 17,-25 -4,-46 -24,-73 -25,-115l-23 -74c-8,-29 -15,-54 -19,-82 21,-11 14,-4 30,-27 16,17 6,0 14,25 7,20 2,39 21,79 16,35 33,54 62,75 28,21 57,32 98,37 20,2 38,1 55,-2l35 -6c2,0 5,0 7,0 20,1 5,-2 18,4 19,-23 5,-13 31,-25 19,-22 27,-26 51,-40l10 84 178 -19 24 -8 2 -118 -4 -57c55,30 379,174 411,208 17,-37 6,-132 6,-180 35,-1 104,-36 126,-53l86 -65 -38 266c79,7 144,28 231,21 68,-5 146,-30 177,-75 38,2 4,-2 19,12 109,87 192,137 358,103l61 -19 -20 -84 70 83c13,11 1,3 18,13l22 -30c20,-22 19,-22 36,-47 15,-21 24,-32 40,-53l28 -41c48,42 129,124 175,175 34,38 141,158 178,179l10 -24c4,-12 3,-11 7,-27 4,-20 6,-32 11,-56l28 -100c0,-1 1,-3 3,-5l0 -60c-33,-8 -43,-32 -66,-52l-68 -60c-33,-29 -108,-86 -129,-116l134 -69c17,-10 28,-18 53,-24 -4,-36 -18,-49 -35,-76l-81 -139c-37,-61 -21,-55 -51,-64 -18,27 -146,134 -165,146l-15 -20c-24,-40 -92,-131 -102,-169 -25,6 -30,11 -56,20 -24,9 -44,14 -64,21 -38,14 -102,32 -116,51l15 133 58 -21 105 141c6,18 6,27 -12,18l-33 -32c-18,-18 -51,-47 -77,-52 -47,-10 -23,-10 -84,-27l-92 2 -8 0c0,-126 -76,-202 -164,-243 -117,-54 -191,-52 -354,-54l-17 152c-20,-9 -51,-38 -66,-58 -48,-11 -42,-26 -110,-26l130 -89c1,0 3,-2 5,-4 -3,-37 -64,-113 -93,-169l-34 0 0 8c6,13 8,-2 -1,17l-177 204c7,29 15,27 26,54l-50 22z"/>
   <path class="fil1" d="M610 509c7,61 -47,126 -97,145l-56 -197c46,-43 144,-16 153,52zm-427 -151l-58 31c9,33 56,107 79,137l57 -24 230 520 85 -28 -66 -257 30 -28c47,-16 114,-81 123,-128 55,-131 -12,-230 -117,-263 -56,-18 -136,-18 -194,-8 -72,12 -105,32 -169,48z"/>
   <path class="fil1" d="M2015 789c-14,10 -8,16 -47,11 15,-109 5,-218 60,-238 76,-10 151,39 132,122 -17,72 -74,81 -145,105zm-101 -484l-13 146 48 23 -53 390c98,50 232,7 298,-40 -3,-77 -31,-106 -1,-189 21,-58 51,-89 101,-119 -14,-246 -357,-223 -380,-211z"/>
   <path class="fil1" d="M2567 390c2,20 -8,6 7,16l33 -14 166 222c-22,21 -34,25 -55,46l18 111 -74 25c14,19 29,40 44,61 26,-15 23,-16 43,-38 13,-14 23,-25 36,-40 21,-26 35,-54 74,-55 64,44 111,104 157,155 44,48 100,111 152,150 10,-14 15,-38 20,-61 11,-63 -21,-60 -105,-139 -58,-55 -117,-102 -177,-160 11,-19 4,-10 23,-25 58,-29 117,-79 172,-106 -12,-32 -72,-140 -94,-155 -29,19 -52,41 -78,65 -25,23 -41,46 -67,68l-21 18 -150 -216 -122 51 -2 21z"/>
   <path class="fil1" d="M982 332l4 20 47 -9c22,300 29,140 64,262 36,125 -35,112 -19,274 167,9 79,-62 107,-225 89,31 311,173 377,181 17,-6 12,-38 7,-67 -210,-46 -102,-88 -257,-149 -32,-13 -62,-24 -92,-36l25 -34c16,-21 20,-18 39,-36 13,-11 24,-25 37,-39 23,-26 50,-49 63,-79l-112 -103c-20,12 -87,112 -104,136 -12,16 -16,21 -29,34l-10 -177c-50,9 -111,25 -147,47z"/>
   <path class="fil1" d="M1564 566l-22 20c-30,-46 -65,-98 -4,-154 56,-59 85,-48 158,-20 -10,43 -34,45 -60,81 -21,27 -47,54 -72,73zm-31 -214c-50,9 -86,55 -99,117 -16,80 11,131 52,170 94,89 268,45 335,-26 -13,-20 -21,-26 -38,-41 -22,-20 -21,-24 -51,-32 -27,20 -41,31 -87,28 26,-47 111,-114 126,-153 3,-29 12,-3 -8,-27 -55,-67 -163,-51 -230,-36z"/>
   <path class="fil1" d="M2372 754l-32 -3c-5,-81 12,-105 78,-129 79,-1 113,0 138,72 -21,19 -147,53 -184,60zm189 176c6,-31 -6,-93 -33,-105 -45,-8 -58,-8 -91,-25 25,-22 61,-26 97,-36 35,-10 67,-19 102,-25 -4,-83 -61,-140 -126,-166 -14,-6 -28,-10 -40,-13 -6,-1 -15,-3 -21,-5 -21,-7 -5,1 -16,-8 -76,14 -109,27 -141,77 -34,52 -45,109 -20,169 39,91 158,146 289,137z"/>
   <path class="fil1" d="M948 712c-2,1 -5,1 -6,5 -2,6 -38,26 -62,28 -59,5 -146,-52 -70,-152 36,-27 37,-43 95,-40 -91,61 -9,102 23,95 28,-5 36,-32 53,-49 15,75 -7,75 -33,113zm-153 -160c-86,38 -144,203 -55,283 35,32 103,51 167,29 63,-20 91,-50 117,-99 11,-91 20,-138 -39,-192 -59,-54 -112,-40 -190,-21z"/>
   <path class="fil2" d="M0 405l0 20c17,12 24,29 35,48l100 171c31,-3 33,-3 60,-17l211 491c54,0 221,-48 246,-85l-186 58 -231 -511 -49 24 -22 -31c-35,-55 -88,-160 -122,-200l-42 32z"/>
   <path class="fil2" d="M1777 714c25,34 -17,190 -17,236 47,9 72,21 128,24 87,4 176,15 274,-31 40,-18 58,-46 90,-70 -15,-14 19,-10 -19,-12 -31,45 -109,70 -177,75 -87,7 -152,-14 -231,-21l38 -266 -86 65z"/>
   <path class="fil3" d="M1914 305c23,-12 366,-35 380,211 -50,30 -80,61 -101,119 -30,83 -2,112 1,189 74,-34 -88,-120 119,-297l19 -19c-8,-211 -201,-249 -412,-257l-6 54z"/>
   <path class="fil0" d="M2066 720c-12,-20 -12,-42 -6,-66l6 -12c19,10 25,-4 20,44 -3,29 -6,22 -20,34zm-51 69c71,-24 128,-33 145,-105 19,-83 -56,-132 -132,-122 -9,43 -12,76 -18,120 -2,19 -6,42 -8,62 -6,47 -3,37 13,45z"/>
   <path class="fil2" d="M2837 839c86,76 99,93 165,172 48,56 135,117 173,174l34 0c11,-20 6,0 9,-33 -37,-21 -144,-141 -178,-179 -46,-51 -127,-133 -175,-175l-28 41z"/>
   <path class="fil2" d="M1238 796c41,10 152,74 198,96 34,18 63,31 96,48 50,26 57,40 113,7 -32,-34 -356,-178 -411,-208l4 57z"/>
   <path class="fil2" d="M644 893c37,19 89,99 221,65 40,-10 44,-18 77,-36 -13,-6 2,-3 -18,-4 -2,0 -5,0 -7,0l-35 6c-17,3 -35,4 -55,2 -41,-5 -70,-16 -98,-37 -29,-21 -46,-40 -62,-75 -19,-40 -14,-59 -21,-79 -8,-25 2,-8 -14,-25 -16,23 -9,16 -30,27 4,28 11,53 19,82l23 74z"/>
   <path class="fil2" d="M2761 939l-22 30c-17,-10 -5,-2 -18,-13l-70 -83 20 84 -61 19c-166,34 -249,-16 -358,-103 28,126 269,164 370,141 27,-6 32,-16 45,-31 39,27 -9,22 42,34 15,-10 18,-16 29,-32 12,-17 18,-23 23,-46z"/>
   <path class="fil0" d="M550 566c-13,12 18,9 -17,10 -6,-27 -14,-38 -17,-68l-8 -26c33,0 52,2 59,28 8,31 -1,45 -17,56zm-93 -109l56 197c50,-19 104,-84 97,-145 -9,-68 -107,-95 -153,-52z"/>
   <path class="fil3" d="M183 358c64,-16 97,-36 169,-48 58,-10 138,-10 194,8 105,33 172,132 117,263 23,-16 35,-44 42,-79 20,-96 -40,-178 -135,-208 -108,-35 -246,-6 -348,38l-39 26z"/>
   <path class="fil0" d="M810 593c-20,107 36,142 138,119 26,-38 48,-38 33,-113 -17,17 -25,44 -53,49 -32,7 -114,-34 -23,-95 -58,-3 -59,13 -95,40z"/>
   <path class="fil3" d="M1562 835c15,20 8,13 33,19l1 -106c-97,-45 -104,-12 -177,-101 -34,-43 -66,-46 -132,-71 -35,-14 -32,-13 -42,-27l-25 34c30,12 60,23 92,36 155,61 47,103 257,149 5,29 10,61 -7,67z"/>
   <path class="fil2" d="M2488 489c61,17 37,17 84,27 26,5 59,34 77,52l33 32c18,9 18,0 12,-18l-105 -141 -58 21 -15 -133 -36 26c0,55 11,69 8,134z"/>
   <path class="fil0" d="M1566 516l0 -59c25,-15 22,-19 62,-20 -9,26 -43,67 -62,79zm-28 -84c-15,63 -16,100 26,134 25,-19 51,-46 72,-73 26,-36 50,-38 60,-81 -73,-28 -102,-39 -158,20z"/>
   <path class="fil3" d="M3168 1029l15 22c16,-20 18,-45 23,-71 5,-19 10,-46 16,-63l-293 -273c-19,15 -12,6 -23,25 60,58 119,105 177,160 84,79 116,76 105,139 -5,23 -10,47 -20,61z"/>
   <path class="fil0" d="M2405 703c11,-43 39,-58 77,-27 -18,24 -23,26 -77,27zm13 -81c-30,44 -66,43 -46,132 37,-7 163,-41 184,-60 -25,-72 -59,-73 -138,-72z"/>
   <path class="fil2" d="M930 464c14,6 38,13 58,17l-3 -58c-3,-1 -6,-3 -7,-1l-30 -5c-2,0 -5,-1 -6,-1 -1,0 -4,0 -6,-1l-5 -145c-28,6 -23,11 -52,17l1 163c36,1 20,-3 50,-5l0 19z"/>
   <path class="fil3" d="M795 552c78,-19 131,-33 190,21 59,54 50,101 39,192 27,-26 37,-73 35,-113 -9,-139 -159,-168 -239,-120l-25 20z"/>
   <path class="fil4" d="M1483 305l50 -22c-11,-27 -19,-25 -26,-54l177 -204c9,-19 7,-4 1,-17 -46,13 -168,178 -206,218 -16,18 -17,14 -29,36 19,22 21,16 33,43z"/>
   <path class="fil2" d="M1787 288c15,20 46,49 66,58l17 -152c-32,0 -69,15 -93,25 0,39 -6,43 10,69z"/>
   <path class="fil2" d="M973 897c-1,47 6,44 8,77l179 -26c33,-5 37,-2 52,-26l-178 19 -10 -84c-24,14 -32,18 -51,40z"/>
   <path class="fil3" d="M2567 390l2 -21 122 -51 150 216 21 -18c-18,-6 -11,9 -40,-44 -13,-23 -20,-35 -35,-59 -24,-41 -46,-80 -68,-117 -38,11 -136,41 -161,68l9 26z"/>
   <path class="fil3" d="M576 994c37,-13 31,-13 19,-56 -8,-26 -14,-48 -20,-74 -11,-43 -34,-113 -35,-155l-30 28 66 257z"/>
   <path class="fil1" d="M1720 174l-37 -75c-15,11 -199,200 -33,112 25,-14 44,-25 70,-37z"/>
   <path class="fil3" d="M982 332c36,-22 97,-38 147,-47l10 177c13,-13 17,-18 29,-34l-15 -169 -168 49 -3 24z"/>
   <path class="fil3" d="M1533 352c67,-15 175,-31 230,36 20,24 11,-2 8,27l32 -25c-38,-71 -121,-89 -200,-73 -10,2 -28,7 -39,11 -10,4 -8,2 -17,9 -14,10 -4,2 -14,15z"/>
   <path class="fil3" d="M2636 739l35 -19c-14,-62 -40,-98 -81,-127 -40,-28 -94,-50 -157,-46 11,9 -5,1 16,8 6,2 15,4 21,5 12,3 26,7 40,13 65,26 122,83 126,166z"/>
   <path class="fil3" d="M2015 789c-16,-8 -19,2 -13,-45 2,-20 6,-43 8,-62 6,-44 9,-77 18,-120 -55,20 -45,129 -60,238 39,5 33,-1 47,-11z"/>
   <path class="fil2" d="M2854 406l15 20c19,-12 147,-119 165,-146 -42,-2 -49,3 -82,30 -36,30 -58,68 -98,96z"/>
   <path class="fil3" d="M948 712c-102,23 -158,-12 -138,-119 -76,100 11,157 70,152 24,-2 60,-22 62,-28 1,-4 4,-4 6,-5z"/>
   <path class="fil3" d="M1272 292l112 103 27 -20c-18,-21 -101,-99 -128,-114l-11 31z"/>
   <path class="fil3" d="M3007 383c22,15 82,123 94,155 2,-1 19,-9 25,-13 -5,-24 -78,-144 -103,-160 -8,7 -13,15 -16,18z"/>
   <path class="fil3" d="M2706 857c7,10 2,9 19,21 26,-22 39,-47 68,-74 28,-25 49,-49 66,-80 -39,1 -53,29 -74,55 -13,15 -23,26 -36,40 -20,22 -17,23 -43,38z"/>
   <path class="fil3" d="M2561 930l44 -6 -31 -112c-27,4 -31,0 -46,13 27,12 39,74 33,105z"/>
   <path class="fil3" d="M1732 540c30,8 29,12 51,32 17,15 25,21 38,41 15,-8 13,-6 26,-16 -10,-26 1,-16 -40,-50 -17,-14 -29,-25 -45,-37l-30 30z"/>
   <path class="fil3" d="M2372 754c-20,-89 16,-88 46,-132 -66,24 -83,48 -78,129l32 3z"/>
   <path class="fil3" d="M1564 566c-42,-34 -41,-71 -26,-134 -61,56 -26,108 4,154l22 -20z"/>
   <path class="fil3" d="M1683 99l37 75 33 -20 -48 -78c-26,16 -16,12 -22,23z"/>
   <path class="fil2" d="M516 508c36,9 34,16 34,58 16,-11 25,-25 17,-56 -7,-26 -26,-28 -59,-28l8 26z"/>
  </g>
 </g>
</svg>
