<?xml version="1.0" encoding="UTF-8"?>
<!DOCTYPE svg PUBLIC "-//W3C//DTD SVG 1.1//EN" "http://www.w3.org/Graphics/SVG/1.1/DTD/svg11.dtd">
<!-- Creator: CorelDRAW X7 -->
<svg xmlns="http://www.w3.org/2000/svg" xml:space="preserve" width="100%" height="100%" version="1.1" style="shape-rendering:geometricPrecision; text-rendering:geometricPrecision; image-rendering:optimizeQuality; fill-rule:evenodd; clip-rule:evenodd"
viewBox="0 0 1788 1940"
 xmlns:xlink="http://www.w3.org/1999/xlink">
 <defs>
  <style type="text/css">
   <![CDATA[
    .str0 {stroke:#332C2B;stroke-width:7.62}
    .fil2 {fill:#010100}
    .fil7 {fill:#46484E}
    .fil11 {fill:#686A70}
    .fil9 {fill:#8A6137}
    .fil12 {fill:#C1848D}
    .fil8 {fill:#EB9BA4}
    .fil3 {fill:#EBB435}
    .fil0 {fill:#EFFDFF}
    .fil5 {fill:#F2ABC2}
    .fil6 {fill:#F94A37}
    .fil4 {fill:#FCF0AE}
    .fil10 {fill:#FE917B}
    .fil1 {fill:#FEDC47}
    .fil13 {fill:white}
   ]]>
  </style>
 </defs>
 <g id="Layer_x0020_1">
  <metadata id="CorelCorpID_0Corel-Layer"/>
  <circle class="fil0" cx="894" cy="847" r="847"/>
  <g id="_2031614347776">
   <path class="fil1" d="M1086 1103c51,-11 93,27 101,68 10,52 -26,93 -68,101 -52,11 -94,-26 -102,-67 -10,-54 26,-93 69,-102zm-438 15c14,4 18,7 36,2 11,-3 20,-8 29,-14 28,-19 16,-27 52,-7 17,9 41,20 63,23 25,3 54,-5 65,-17l-14 12c2,69 3,140 -22,204 -49,123 -122,-15 -149,-72 -8,-18 -16,-37 -22,-57 -4,-12 -15,-57 -18,-62 -9,-6 -15,-3 -20,-12zm335 -180c80,-21 109,99 32,121 -80,22 -113,-101 -32,-121zm-377 7c71,-17 65,100 -4,118 -71,19 -68,-101 4,-118zm434 -115c-2,10 -4,-12 -11,-25 -6,-14 -72,-36 -87,-40 -22,-7 -45,-12 -70,-15 -14,-2 -69,-6 -80,-1l20 0c-9,15 -39,49 -52,61 -56,50 -148,105 -231,107 -16,30 -19,94 -37,142 -5,12 -18,32 -20,41 15,11 22,12 35,32 25,37 33,93 13,135 -4,8 -10,14 -13,21 16,27 45,58 65,78 12,12 25,24 38,35 13,11 27,22 40,33 -15,-6 -40,-27 -53,-36 -13,34 -15,115 -11,154 5,49 16,96 32,137 16,41 36,78 58,111 15,22 61,83 77,90 44,17 88,2 97,-55 13,-83 -44,-270 -97,-347 -5,-8 -14,-17 -18,-25 16,6 22,19 66,26 78,12 149,-20 211,-54l-30 60c-10,22 -18,45 -26,69 -15,50 -25,106 -21,163 4,53 28,197 106,162 29,-13 45,-38 51,-40 0,0 0,0 1,0 0,0 0,0 1,1l34 -86c23,-63 40,-132 45,-199 4,-44 1,-74 -1,-116 12,16 11,99 10,125l40 -30c41,-28 56,-30 98,-40 6,-2 33,-37 33,-37 -18,-10 -45,-14 -68,-13 -29,2 -41,10 -62,19 13,-10 28,-19 49,-24 28,-6 40,-2 66,2 -2,-4 -21,-25 -25,-27 -6,4 -25,18 -34,7 -9,-12 3,-33 4,-43 1,-7 -23,-39 -28,-47 -2,-3 -3,-4 -5,-8l-6 -8c-8,6 -17,19 -31,14 -10,-17 10,-47 8,-58l-27 -57 5 -53c1,-23 1,-47 0,-71 -2,-41 -10,-86 -19,-123 -6,-24 -17,-59 -27,-80 -6,-14 -5,-12 -3,-29 14,-98 17,-203 4,-302 -2,-13 -7,-16 -13,-24 -35,-46 -58,-98 -101,-115 -6,75 -6,144 0,219 6,85 15,125 26,204 -12,-4 -17,-11 -26,-20z"/>
   <path class="fil1" d="M1221 753c-9,4 -41,30 -52,38 -5,4 -5,3 -5,11 -2,11 -2,23 -4,34 -3,32 -9,41 0,61 3,8 6,19 11,25 6,6 13,11 19,18 23,23 117,121 129,159 -23,12 -81,58 -96,77l25 28c0,0 1,1 1,1 3,2 1,1 3,2 8,-1 65,-43 73,-49l72 -51 -41 -68c-7,-13 -33,-58 -35,-74l48 -32c93,-61 217,-119 323,-157 18,-7 42,-16 62,-21l13 -152c-9,8 -15,16 -23,23 -32,27 -40,34 -78,59 -105,71 -243,99 -370,84 -10,-1 -67,-8 -75,-16z"/>
   <path class="fil2 str0" d="M532 1672c2,-3 2,1 0,-5 0,-1 -2,-5 -2,-6 -2,-4 -3,-7 -5,-11 -10,-19 -32,-54 -36,-65 -3,-1 -34,-47 -35,-49 17,-43 68,-64 123,-41l0 29c5,76 22,148 50,208 15,30 30,56 48,81 9,13 18,26 27,37 7,9 25,27 29,34 -42,12 -96,7 -130,-14 11,-29 -4,-44 -8,-65 4,16 12,52 -3,64 -17,13 -46,-14 -54,-20 -63,-53 -164,-259 -156,-323l20 53c-4,-13 -17,-56 -16,-71 1,-10 13,-11 17,-6 1,1 12,39 13,43 4,12 13,30 15,39 -3,-19 -19,-55 -18,-78 32,15 115,144 121,166zm1252 -1223l0 56c0,2 0,3 0,5 -4,29 -3,78 -8,114 -2,19 -2,37 -4,56 -5,35 -8,73 -13,109 -2,17 -14,93 -15,107 -12,1 -74,26 -88,30 -14,5 -29,11 -43,16 -14,4 -28,11 -42,15 -29,11 -57,22 -85,34 -14,5 -70,31 -82,34 3,6 6,10 10,16l30 48c9,13 37,53 40,63 -10,5 -19,11 -29,16 -10,6 -18,11 -28,16 -18,12 -35,22 -53,34 10,15 22,28 34,41 6,9 28,35 30,44 -4,7 -56,44 -67,53 -7,6 -15,12 -21,19 5,10 30,67 31,76 16,0 20,0 27,9 13,16 11,39 11,59 0,12 6,16 9,26 19,51 29,109 17,170 -9,45 -27,76 -54,110 -10,14 -23,25 -37,35 -35,25 -83,45 -131,45 -45,0 -97,-5 -134,-24 -4,6 -8,11 -13,17 -3,5 -4,14 -13,14 -4,0 -8,-4 -14,-4 -4,0 -7,14 -21,14 -9,0 -13,-6 -21,-8 -9,1 -21,22 -35,1 -6,4 -14,11 -21,8 -8,-5 -5,-17 -10,-22 -9,-9 -36,2 -19,-33 -9,0 -33,-3 -36,8 -2,8 0,34 -9,34 -7,0 -4,-1 -11,-2 -1,5 -3,7 -5,10 -13,15 -20,2 -32,7 -6,2 -9,11 -15,11 -10,0 -10,-4 -19,-10 -10,5 -16,16 -23,1 -3,-6 -4,-5 -5,-10l-17 0c-7,-11 -5,-7 -4,-19 -4,-3 -7,-9 -12,-9 -11,0 -46,27 -131,-11 -17,-7 -16,23 -70,-19 -12,-10 -24,-23 -34,-35 -5,-7 -10,-13 -15,-21 -5,-7 -9,-12 -14,-20 -4,-8 -8,-14 -13,-22 -27,-45 -47,-93 -66,-142 -7,-17 -43,-128 1,-128 34,0 40,32 59,37 1,-14 18,-29 29,-36 39,-27 72,-10 98,-8 0,-45 10,-73 10,-94l-26 -22c-26,-23 -48,-50 -67,-78 -27,-40 -49,-92 -49,-141 0,-26 12,-44 22,-63 7,-13 13,-25 18,-39 2,-6 3,-11 5,-15 11,-38 14,-86 31,-122 -151,35 -333,31 -486,-8 -12,-3 -22,-7 -32,-9l0 -4c5,-1 7,-4 12,-7l33 -20c68,-37 135,-61 212,-77 19,-4 43,-7 62,-10 60,-8 128,-10 190,-9 10,0 11,2 21,2 28,0 58,3 84,6 12,2 30,6 39,2 67,-31 110,-36 185,-36 104,0 163,44 181,49 0,-10 -5,-24 -7,-33 -3,-10 -5,-22 -7,-32 -5,-20 -8,-44 -11,-66l-8 -88c0,-7 0,-13 0,-20 0,-12 -2,-22 -2,-36 0,-15 2,-23 2,-38 -1,-47 8,-95 16,-141 2,-10 4,-20 7,-31 4,-20 12,-42 17,-61 18,4 62,80 71,101 17,41 36,83 45,127l14 73c5,33 12,158 9,201l-4 38c6,-1 14,-9 19,-12l106 -74c42,-28 86,-54 130,-78 6,-4 13,-7 19,-11 32,-19 64,-35 97,-52l60 -29c34,-17 69,-32 104,-46l84 -33 0 1zm-403 1106l-3 18 6 -19c2,-12 7,-30 10,-43 2,-12 4,-37 6,-45 20,14 7,93 3,119 -13,81 -48,225 -112,275 -38,31 -41,-38 -45,-68 -7,39 5,112 51,76 23,-20 44,-54 61,-87 24,-51 46,-144 55,-204 2,-10 2,-25 6,-31 16,58 31,91 18,162 -5,26 -13,49 -24,70 -12,23 -24,37 -40,53 -54,55 -132,74 -209,62 -17,-3 -60,-13 -71,-21 3,-13 17,-37 23,-51 23,-57 41,-104 54,-167 5,-22 6,-43 10,-65 3,-17 98,-80 140,-78 -15,27 -27,53 -38,86 -8,24 -25,74 -26,100l3 -7c3,-26 30,-98 40,-121 11,-24 40,-84 63,-95 1,26 -12,82 -20,103l5 -10c0,-1 1,-1 1,-1 2,-12 10,-33 14,-47 4,-19 7,-33 8,-53 6,-2 13,-5 21,-6 4,19 -6,75 -10,95zm-97 -126c-2,-12 1,-28 7,-35 5,5 14,16 17,22 -6,6 -13,12 -24,13zm-67 -97c0,-14 4,-28 9,-39 4,3 5,6 8,11 3,6 4,7 6,13 -6,5 -12,13 -23,15zm-740 -218c32,14 53,79 43,127 -1,8 -4,15 -7,22 -3,5 -7,13 -12,16 -15,-16 -33,-63 -40,-90 -6,-28 -12,-57 6,-81l10 6zm699 -176c17,12 88,89 106,114 7,10 29,36 30,46 -7,2 -22,13 -28,17 -24,16 -58,40 -73,63 7,5 20,19 27,27 5,4 9,8 13,13l13 14c5,5 9,9 13,14 5,6 8,9 13,14 4,6 8,9 12,15 4,5 10,10 11,16 -4,7 -6,6 -11,11l-39 34c-7,-5 -31,-48 -37,-61 -7,-15 -29,-52 -27,-68 13,-83 6,-171 -17,-250 -2,-5 -4,-15 -6,-19zm-986 -86l6 7c35,46 86,57 99,67 -54,1 -137,-8 -193,-18l-24 -6c-13,-1 -42,-9 -55,-13 15,-16 119,-66 150,-72 4,16 12,24 17,35zm850 -425c43,17 66,69 101,115 6,8 11,11 13,24 13,99 10,204 -4,302 -2,17 -3,15 3,29 10,21 21,56 27,80 9,37 17,82 19,123 1,24 1,48 0,71l-5 53 27 57c2,11 -18,41 -8,58 14,5 23,-8 31,-14l6 8c2,4 3,5 5,8 5,8 29,40 28,47 -1,10 -13,31 -4,43 9,11 28,-3 34,-7 4,2 23,23 25,27 -26,-4 -38,-8 -66,-2 -21,5 -36,14 -49,24 21,-9 33,-17 62,-19 23,-1 50,3 68,13 0,0 -27,35 -33,37 -42,10 -57,12 -98,40l-40 30c1,-26 2,-109 -10,-125 2,42 5,72 1,116 -5,67 -22,136 -45,199l-34 86c-5,9 -9,19 -14,28 -3,5 -13,19 -17,24 -10,-1 -9,-3 -20,-2 -9,12 -11,18 -27,8 -14,-10 -16,2 -30,7 -7,-3 -4,-5 -12,-9 -11,0 -8,6 -19,8 -6,-24 -5,-21 -28,-26 0,-20 8,-15 0,-38 -4,-10 -7,-23 -10,-34 -13,-53 -19,-103 -19,-158 0,-30 4,-57 5,-84 -11,28 -11,117 -8,152 5,67 12,76 26,133l-34 4c0,-12 2,-29 2,-42 1,-64 -8,-124 -26,-185 -7,-23 -16,-43 -22,-62l20 72c19,77 28,176 13,253l-11 -1c-8,11 -8,20 -24,17 -24,-5 -14,6 -28,12 -19,-20 -13,-12 -31,-4 -5,-14 -8,-16 -25,-15 0,-7 0,-12 -2,-18 -16,-7 -62,-68 -77,-90 -22,-33 -42,-70 -58,-111 -16,-41 -27,-88 -32,-137 -4,-39 -2,-120 11,-154 13,9 38,30 53,36 -13,-11 -27,-22 -40,-33 -13,-11 -26,-23 -38,-35 -20,-20 -49,-51 -65,-78 3,-7 9,-13 13,-21 20,-42 12,-98 -13,-135 -13,-20 -20,-21 -35,-32 2,-9 15,-29 20,-41 18,-48 21,-112 37,-142 6,-27 27,-55 40,-75 -3,-1 2,-1 -2,1l-13 14c-34,44 -9,39 -51,48 -38,7 -76,13 -115,17 -55,4 -67,6 -113,-15 -30,-13 -63,-36 -75,-57 -7,-8 -16,-23 -19,-35 128,-43 320,-53 461,-31l-7 6c10,-3 25,-10 36,-14 12,-5 23,-9 36,-13 21,-6 63,-15 85,-14 11,-5 66,-1 80,1 25,3 48,8 70,15 15,4 81,26 87,40 7,13 9,35 11,25 -14,-33 -31,-155 -35,-195 -8,-79 -6,-145 -1,-222 10,0 29,8 36,14zm727 176l-13 152 -18 133c-7,5 -73,26 -89,32l-173 66c-14,5 -27,11 -42,17 -13,6 -28,14 -41,19 3,10 78,112 85,128 -24,17 -102,50 -114,68 3,5 5,6 10,11 3,4 5,7 8,11 7,7 12,13 18,20 10,13 25,29 33,43 -4,5 -57,44 -62,47 -4,4 -23,19 -28,23 1,9 12,32 16,43 5,9 15,30 17,40 -9,4 -12,7 -22,0 -7,-5 -33,-37 -39,-45 -9,-11 -43,-54 -47,-67 11,-10 31,-31 44,-39 2,-5 9,-8 11,-14 -16,-28 -60,-71 -69,-84 -2,-1 0,0 -3,-2 0,0 -1,-1 -1,-1l-25 -28c15,-19 73,-65 96,-77 -12,-38 -106,-136 -129,-159 -6,-7 -13,-12 -19,-18 -5,-6 -8,-17 -11,-25 -9,-20 -3,-29 0,-61 2,-11 2,-23 4,-34 0,-8 0,-7 5,-11 11,-8 43,-34 52,-38 46,-34 77,-53 127,-85 78,-48 190,-108 275,-147 19,-8 136,-60 149,-60l-5 142zm-699 -298l5 6c34,54 73,169 77,227 -7,-5 -21,-26 -26,-33 -8,-12 -15,-23 -24,-36 -27,-41 -41,-39 -63,-54l-31 -12c-1,-20 21,-132 29,-144 7,5 30,36 33,46z"/>
   <path class="fil3" d="M1403 1585c-3,-2 -6,-12 -9,-17 -2,-4 -2,-3 -5,-6 -6,-7 -4,1 -5,-8l-6 19 3 -18c-9,0 -14,0 -21,4 -3,2 -4,4 -7,5 -6,4 -3,5 -5,2 0,0 -1,0 -1,1l-5 10c-13,8 -37,51 -45,67 -10,21 -27,51 -35,75 -4,-7 -4,-20 -3,-29l-3 7c1,-26 18,-76 26,-100 11,-33 23,-59 38,-86 -42,-2 -137,61 -140,78 -4,22 -5,43 -10,65 -13,63 -31,110 -54,167 -6,14 -20,38 -23,51 11,8 54,18 71,21 77,12 155,-7 209,-62 16,-16 28,-30 40,-53 11,-21 19,-44 24,-70 13,-71 -2,-104 -18,-162 -4,6 -4,21 -6,31 -9,60 -31,153 -55,204 -17,33 -38,67 -61,87 -46,36 -58,-37 -51,-76 4,30 7,99 45,68 64,-50 99,-194 112,-275z"/>
   <path class="fil4" d="M1221 753c8,8 65,15 75,16 127,15 265,-13 370,-84 38,-25 46,-32 78,-59 8,-7 14,-15 23,-23l5 -142c-13,0 -130,52 -149,60 -85,39 -197,99 -275,147 -50,32 -81,51 -127,85z"/>
   <path class="fil3" d="M1252 1207c9,13 53,56 69,84 -2,6 -9,9 -11,14 -1,6 -1,3 12,13 8,6 39,31 47,32 5,-3 58,-42 62,-47 -8,-14 -23,-30 -33,-43 -6,-7 -11,-13 -18,-20 -3,-4 -5,-7 -8,-11 -5,-5 -7,-6 -10,-11 12,-18 90,-51 114,-68 -7,-16 -82,-118 -85,-128 13,-5 28,-13 41,-19 15,-6 28,-12 42,-17l173 -66c16,-6 82,-27 89,-32l18 -133c-20,5 -44,14 -62,21 -106,38 -230,96 -323,157l-48 32c2,16 28,61 35,74l41 68 -72 51c-8,6 -65,48 -73,49z"/>
   <path class="fil3" d="M753 1890c2,6 2,11 2,18 17,-1 20,1 25,15 18,-8 12,-16 31,4 14,-6 4,-17 28,-12 16,3 16,-6 24,-17l11 1c15,-77 6,-176 -13,-253l-20 -72c6,19 15,39 22,62 18,61 27,121 26,185 0,13 -2,30 -2,42l34 -4c-14,-57 -21,-66 -26,-133 -3,-35 -3,-124 8,-152 -1,27 -5,54 -5,84 0,55 6,105 19,158 3,11 6,24 10,34 8,23 0,18 0,38 23,5 22,2 28,26 11,-2 8,-8 19,-8 8,4 5,6 12,9 14,-5 16,-17 30,-7 16,10 18,4 27,-8 11,-1 10,1 20,2 4,-5 14,-19 17,-24 5,-9 9,-19 14,-28 -1,-1 -1,-1 -1,-1 -1,0 -1,0 -1,0 -6,2 -22,27 -51,40 -78,35 -102,-109 -106,-162 -4,-57 6,-113 21,-163 8,-24 16,-47 26,-69l30 -60c-62,34 -133,66 -211,54 -44,-7 -50,-20 -66,-26 4,8 13,17 18,25 53,77 110,264 97,347 -9,57 -53,72 -97,55z"/>
   <path class="fil3" d="M577 1524c-1,2 0,1 -2,5 -1,3 0,-1 -1,4 -14,36 -45,65 -85,52 4,11 26,46 36,65 2,4 3,7 5,11 0,1 2,5 2,6 2,6 2,2 0,5 2,12 10,24 10,39 -26,-40 -47,-76 -88,-103 -25,-16 -24,-10 -47,-17 -4,-6 -2,-7 -7,-12l-20 -53c-8,64 93,270 156,323 8,6 37,33 54,20 15,-12 7,-48 3,-64 4,21 19,36 8,65 34,21 88,26 130,14 -4,-7 -22,-25 -29,-34 -9,-11 -18,-24 -27,-37 -18,-25 -33,-51 -48,-81 -28,-60 -45,-132 -50,-208z"/>
   <path class="fil4" d="M200 850c21,-4 52,-15 86,-21 99,-18 200,-19 300,-8l-17 21c-13,20 -34,48 -40,75 83,-2 175,-57 231,-107 13,-12 43,-46 52,-61l-20 0c-22,-1 -64,8 -85,14 -13,4 -24,8 -36,13 -11,4 -26,11 -36,14l7 -6c-141,-22 -333,-12 -461,31 3,12 12,27 19,35z"/>
   <path class="fil1" d="M200 850c12,21 45,44 75,57 46,21 58,19 113,15 39,-4 77,-10 115,-17 42,-9 17,-4 51,-48l13 -14c4,-2 -1,-2 2,-1l17 -21c-100,-11 -201,-10 -300,8 -34,6 -65,17 -86,21z"/>
   <path class="fil5" d="M716 1193c-3,12 -9,24 -5,37 0,13 31,65 38,77 46,73 83,79 109,-14 10,-32 13,-68 14,-103 -10,-1 -25,-8 -37,-10 -14,-3 -29,-5 -43,-5 -30,0 -55,7 -76,18z"/>
   <path class="fil4" d="M1040 830c9,9 14,16 26,20 -11,-79 -20,-119 -26,-204 -6,-75 -6,-144 0,-219 -7,-6 -26,-14 -36,-14 -5,77 -7,143 1,222 4,40 21,162 35,195z"/>
   <path class="fil6" d="M1024 1191c2,56 65,96 119,63 18,-11 36,-32 37,-64 1,-32 -17,-57 -36,-68 1,11 -9,28 -15,36 -7,11 -13,17 -24,24 -23,16 -50,16 -81,9z"/>
   <path class="fil2" d="M994 1034c11,-8 14,9 24,-15 5,-11 13,-17 25,-9 -1,16 -36,47 -49,24zm-24 -77c27,-14 45,28 20,40 -13,7 -27,0 -32,-10 -6,-15 2,-24 12,-30zm13 -19c-81,20 -48,143 32,121 77,-22 48,-142 -32,-121z"/>
   <path class="fil4" d="M489 1585c40,13 71,-16 85,-52 1,-5 0,-1 1,-4 2,-4 1,-3 2,-5l0 -29c-55,-23 -106,-2 -123,41 1,2 32,48 35,49z"/>
   <path class="fil7" d="M1037 415c22,15 36,13 63,54 9,13 16,24 24,36 5,7 19,28 26,33 -4,-58 -43,-173 -77,-227l-5 -6c-8,33 -19,49 -25,97 -2,17 0,13 -6,13z"/>
   <path class="fil2" d="M615 962c26,-8 38,34 12,41 -13,4 -24,-4 -27,-14 -4,-12 2,-23 15,-27zm-9 -17c-72,17 -75,137 -4,118 69,-18 75,-135 4,-118z"/>
   <path class="fil4" d="M400 1579c5,5 3,6 7,12 23,7 22,1 47,17 41,27 62,63 88,103 0,-15 -8,-27 -10,-39 -6,-22 -89,-151 -121,-166 -1,23 15,59 18,78 -2,-9 -11,-27 -15,-39 -1,-4 -12,-42 -13,-43 -4,-5 -16,-4 -17,6 -1,15 12,58 16,71z"/>
   <path class="fil8" d="M716 1193c21,-11 46,-18 76,-18 14,0 29,2 43,5 12,2 27,9 37,10l-1 -67c-20,3 -24,9 -50,5 -17,-2 -37,-13 -47,-14 -14,8 -25,20 -34,33 -5,7 -9,14 -13,22 -4,9 -6,17 -11,24z"/>
   <path class="fil9" d="M1369 1350c-8,-1 -39,-26 -47,-32 -13,-10 -13,-7 -12,-13 -13,8 -33,29 -44,39 4,13 38,56 47,67 6,8 32,40 39,45 10,7 13,4 22,0 -2,-10 -12,-31 -17,-40 -4,-11 -15,-34 -16,-43 5,-4 24,-19 28,-23z"/>
   <path class="fil10" d="M1024 1191c31,7 58,7 81,-9 11,-7 17,-13 24,-24 6,-8 16,-25 15,-36 -57,-34 -121,5 -120,69z"/>
   <path class="fil7" d="M78 902l24 6c56,10 139,19 193,18 -13,-10 -64,-21 -99,-67l-6 -7c-4,3 -49,20 -58,23 -9,5 -18,8 -27,13 -10,5 -17,10 -27,14z"/>
   <path class="fil4" d="M1259 1690c-1,9 -1,22 3,29 8,-24 25,-54 35,-75 8,-16 32,-59 45,-67 8,-21 21,-77 20,-103 -23,11 -52,71 -63,95 -10,23 -37,95 -40,121z"/>
   <path class="fil2" d="M774 1114c10,1 30,12 47,14 26,4 30,-2 50,-5l1 67c-1,35 -4,71 -14,103 -26,93 -63,87 -109,14 -7,-12 -38,-64 -38,-77 -6,-5 -6,-11 -11,-23 -7,-22 -20,-56 -22,-78 18,-8 19,3 61,-34 3,1 31,14 35,19zm-126 4c5,9 11,6 20,12 3,5 14,50 18,62 6,20 14,39 22,57 27,57 100,195 149,72 25,-64 24,-135 22,-204l14 -12c-11,12 -40,20 -65,17 -22,-3 -46,-14 -63,-23 -36,-20 -24,-12 -52,7 -9,6 -18,11 -29,14 -18,5 -22,2 -36,-2z"/>
   <path class="fil11" d="M78 902c10,-4 17,-9 27,-14 9,-5 18,-8 27,-13 9,-3 54,-20 58,-23 -5,-11 -13,-19 -17,-35 -31,6 -135,56 -150,72 13,4 42,12 55,13z"/>
   <path class="fil6" d="M461 1189c7,27 25,74 40,90 5,-3 9,-11 12,-16 3,-7 6,-14 7,-22 10,-48 -11,-113 -43,-127 6,15 10,26 5,45 -3,10 -10,27 -21,30z"/>
   <path class="fil11" d="M1037 415c6,0 4,4 6,-13 6,-48 17,-64 25,-97 -3,-10 -26,-41 -33,-46 -8,12 -30,124 -29,144l31 12z"/>
   <path class="fil12" d="M711 1230c-4,-13 2,-25 5,-37 5,-7 7,-15 11,-24 4,-8 8,-15 13,-22 9,-13 20,-25 34,-33 -4,-5 -32,-18 -35,-19 -42,37 -43,26 -61,34 2,22 15,56 22,78 5,12 5,18 11,23z"/>
   <path class="fil2" d="M1024 1191c-1,-64 63,-103 120,-69 19,11 37,36 36,68 -1,32 -19,53 -37,64 -54,33 -117,-7 -119,-63zm62 -88c-43,9 -79,48 -69,102 8,41 50,78 102,67 42,-8 78,-49 68,-101 -8,-41 -50,-79 -101,-68z"/>
   <path class="fil4" d="M1348 1566c2,3 -1,2 5,-2 3,-1 4,-3 7,-5 7,-4 12,-4 21,-4 4,-20 14,-76 10,-95 -8,1 -15,4 -21,6 -1,20 -4,34 -8,53 -4,14 -12,35 -14,47z"/>
   <path class="fil4" d="M1384 1554c1,9 -1,1 5,8 3,3 3,2 5,6 3,5 6,15 9,17 4,-26 17,-105 -3,-119 -2,8 -4,33 -6,45 -3,13 -8,31 -10,43z"/>
   <path class="fil10" d="M461 1189c11,-3 18,-20 21,-30 5,-19 1,-30 -5,-45l-10 -6c-18,24 -12,53 -6,81z"/>
   <path class="fil13" d="M970 957c-10,6 -18,15 -12,30 5,10 19,17 32,10 25,-12 7,-54 -20,-40z"/>
   <path class="fil13" d="M615 962c-13,4 -19,15 -15,27 3,10 14,18 27,14 26,-7 14,-49 -12,-41z"/>
   <path class="fil9" d="M994 1034c13,23 48,-8 49,-24 -12,-8 -20,-2 -25,9 -10,24 -13,7 -24,15z"/>
   <path class="fil9" d="M1284 1429c11,-1 18,-7 24,-13 -3,-6 -12,-17 -17,-22 -6,7 -9,23 -7,35z"/>
   <path class="fil9" d="M1217 1332c11,-2 17,-10 23,-15 -2,-6 -3,-7 -6,-13 -3,-5 -4,-8 -8,-11 -5,11 -9,25 -9,39z"/>
  </g>
 </g>
</svg>
